<?xml version="1.0" encoding="UTF-8"?>
<svg xmlns="http://www.w3.org/2000/svg" xmlns:xlink="http://www.w3.org/1999/xlink" width="742pt" height="164pt" viewBox="0 0 742 164" version="1.1">
<g id="surface1">
<path style=" stroke:none;fill-rule:evenodd;fill:rgb(16.099548%,14.898682%,15.299988%);fill-opacity:1;" d="M 707.601563 163.539063 C 701.5 162.621094 697.742188 160.902344 693.890625 157.273438 C 691.78125 155.28125 691.574219 155.742188 696.453125 151.445313 C 701.503906 146.996094 700.78125 147.28125 702.554688 149.027344 C 708.507813 154.890625 717.492188 154.632813 720.550781 148.515625 C 722.726563 144.164063 721.269531 142.285156 712.714844 138.394531 C 702.886719 133.925781 700.632813 131.410156 700.644531 124.941406 C 700.679688 109.230469 723.332031 100.128906 737.925781 109.960938 C 741.527344 112.386719 741.601563 112.089844 736.382813 116.15625 C 731.277344 120.132813 732.15625 119.910156 729.601563 117.859375 C 723.730469 113.148438 715.75 114.960938 714.320313 121.328125 C 713.546875 124.792969 714.671875 125.820313 723.507813 129.703125 C 734.769531 134.652344 737.519531 138.929688 735.167969 147.84375 C 732.652344 157.363281 718.84375 165.226563 707.601563 163.539063 Z M 504.65625 161.917969 C 504.585938 161.730469 506.480469 151.820313 508.863281 139.894531 C 511.25 127.96875 513.199219 118.023438 513.199219 117.792969 C 513.199219 117.40625 512.753906 117.375 507.214844 117.375 C 503.488281 117.375 501.171875 117.28125 501.082031 117.132813 C 500.921875 116.875 502.507813 108.496094 502.882813 107.59375 C 502.960938 107.414063 503.035156 107.234375 503.109375 107.054688 C 509.351563 107.054688 515.59375 107.054688 521.835938 107.054688 C 528.078125 107.054688 534.320313 107.054688 540.5625 107.054688 C 540.5625 107.238281 540.5625 107.425781 540.5625 107.613281 C 540.5625 108.148438 539.015625 116.089844 538.742188 116.953125 C 538.621094 117.339844 538.117188 117.375 532.753906 117.375 C 530.800781 117.375 528.851563 117.375 526.898438 117.375 C 526.820313 117.671875 526.742188 117.972656 526.664063 118.273438 C 526.535156 118.769531 524.582031 128.460938 522.320313 139.8125 C 520.058594 151.164063 518.105469 160.859375 517.976563 161.351563 C 517.898438 161.652344 517.820313 161.953125 517.742188 162.253906 C 515.582031 162.253906 513.421875 162.253906 511.265625 162.253906 C 505.921875 162.253906 504.761719 162.195313 504.65625 161.914063 Z M 556.507813 161.992188 C 556.417969 161.84375 557.460938 156.117188 558.828125 149.265625 C 559.65625 145.113281 560.488281 140.960938 561.316406 136.808594 C 558.855469 131.886719 556.394531 126.964844 553.933594 122.042969 C 548.910156 111.992188 546.652344 107.242188 546.859375 107.164063 C 547.027344 107.097656 550.242188 107.074219 554.003906 107.109375 C 556.28125 107.132813 558.5625 107.152344 560.839844 107.171875 C 562.285156 110.089844 563.726563 113.003906 565.171875 115.917969 C 567.554688 120.726563 569.621094 124.699219 569.765625 124.75 C 569.914063 124.796875 573.453125 120.835938 577.628906 115.945313 C 580.164063 112.980469 582.695313 110.015625 585.226563 107.054688 C 587.585938 107.054688 589.9375 107.054688 592.292969 107.054688 C 596.179688 107.054688 599.359375 107.148438 599.359375 107.261719 C 599.359375 107.375 593.761719 113.914063 586.914063 121.792969 C 582.765625 126.566406 578.617188 131.34375 574.46875 136.117188 C 573.597656 140.453125 572.726563 144.789063 571.855469 149.125 C 570.984375 153.460938 570.113281 157.796875 569.242188 162.132813 C 567.144531 162.15625 565.050781 162.175781 562.957031 162.199219 C 558.523438 162.242188 556.625 162.183594 556.507813 161.992188 Z M 595.148438 161.945313 C 595.082031 161.777344 597.496094 149.386719 600.511719 134.40625 C 602.339844 125.328125 604.167969 116.25 605.996094 107.171875 C 609.949219 107.148438 613.902344 107.125 617.859375 107.101563 C 633.09375 107.011719 635.144531 107.292969 639.128906 110.007813 C 650.085938 117.46875 642.992188 135.589844 627.976563 138.503906 C 627.144531 138.667969 626.417969 138.878906 626.355469 138.980469 C 626.292969 139.082031 629.265625 144.246094 632.960938 150.457031 C 636.65625 156.667969 639.679688 161.863281 639.679688 162 C 639.679688 162.292969 625.566406 162.359375 625.144531 162.070313 C 625.003906 161.972656 622.15625 157.105469 618.816406 151.253906 C 615.292969 145.082031 612.652344 140.703125 612.53125 140.828125 C 612.414063 140.945313 611.402344 145.617188 610.28125 151.214844 C 609.160156 156.8125 608.179688 161.585938 608.105469 161.824219 C 607.929688 162.378906 595.359375 162.5 595.148438 161.949219 Z M 623.390625 131.011719 C 627.964844 129.296875 630.054688 126.960938 630.269531 123.3125 C 630.476563 119.882813 629.398438 118.070313 626.675781 117.261719 C 625.058594 116.78125 617.515625 116.449219 617.269531 116.847656 C 616.976563 117.320313 614.242188 131.34375 614.394531 131.589844 C 614.714844 132.109375 621.648438 131.660156 623.390625 131.011719 Z M 649.28125 161.710938 C 649.28125 160.96875 659.800781 108.265625 660.082031 107.59375 C 660.160156 107.414063 660.234375 107.234375 660.308594 107.054688 C 666.066406 107.054688 671.824219 107.054688 677.582031 107.054688 C 687.324219 107.054688 694.910156 107.144531 694.984375 107.265625 C 695.117188 107.480469 693.328125 116.734375 693.070313 117.144531 C 692.988281 117.28125 688.792969 117.371094 682.5 117.371094 C 679.023438 117.371094 675.546875 117.371094 672.070313 117.371094 C 671.996094 117.554688 671.917969 117.734375 671.84375 117.914063 C 671.464844 118.816406 669.644531 128.398438 669.800781 128.652344 C 669.894531 128.804688 673.652344 128.894531 680.238281 128.894531 C 685.902344 128.894531 690.582031 128.972656 690.644531 129.074219 C 690.792969 129.3125 688.933594 138.535156 688.691406 138.777344 C 688.585938 138.882813 683.703125 138.996094 677.84375 139.03125 C 674.289063 139.050781 670.734375 139.070313 667.183594 139.09375 C 666.765625 141.171875 666.351563 143.253906 665.933594 145.332031 C 665.25 148.765625 664.738281 151.652344 664.796875 151.753906 C 664.859375 151.851563 669.65625 151.933594 675.453125 151.933594 C 678.96875 151.933594 682.484375 151.933594 686 151.933594 C 686 152.117188 686 152.304688 686 152.492188 C 686 153.03125 684.453125 160.96875 684.179688 161.832031 C 684.054688 162.226563 683.011719 162.253906 666.664063 162.253906 C 660.871094 162.253906 655.074219 162.253906 649.28125 162.253906 C 649.28125 162.074219 649.28125 161.894531 649.28125 161.710938 Z M 1.378906 105.582031 C 1.277344 105.417969 11.457031 95.070313 27.167969 79.375 C 41.441406 65.109375 53.121094 53.324219 53.121094 53.1875 C 53.121094 53.046875 41.355469 41.167969 26.972656 26.785156 C 12.59375 12.40625 0.882813 0.554688 0.949219 0.449219 C 1.175781 0.0820313 9.15625 0.214844 9.871094 0.597656 C 10.882813 1.136719 62.539063 52.9375 62.445313 53.316406 C 62.398438 53.503906 50.578125 65.398438 36.179688 79.753906 C 27.453125 88.453125 18.722656 97.152344 9.996094 105.851563 C 8.589844 105.851563 7.179688 105.851563 5.773438 105.851563 C 2.882813 105.851563 1.496094 105.769531 1.378906 105.582031 Z M 17.703125 105.585938 C 17.605469 105.425781 28.070313 94.785156 43.488281 79.363281 C 57.761719 65.089844 69.441406 53.300781 69.441406 53.160156 C 69.441406 53.023438 57.722656 41.269531 43.402344 27.039063 C 29.078125 12.8125 17.359375 1.015625 17.359375 0.828125 C 17.359375 0.535156 18.070313 0.492188 21.785156 0.546875 C 23.261719 0.570313 24.734375 0.589844 26.210938 0.613281 C 34.976563 9.320313 43.742188 18.027344 52.507813 26.734375 C 66.96875 41.101563 78.800781 52.980469 78.800781 53.136719 C 78.800781 53.289063 67 65.214844 52.578125 79.632813 C 43.835938 88.375 35.097656 97.113281 26.355469 105.851563 C 24.941406 105.851563 23.527344 105.851563 22.113281 105.851563 C 19.246094 105.851563 17.816406 105.765625 17.703125 105.585938 Z M 34.023438 105.585938 C 33.925781 105.425781 44.402344 94.769531 59.839844 79.332031 C 77.789063 61.382813 85.765625 53.253906 85.632813 53.039063 C 85.527344 52.871094 73.738281 41.066406 59.433594 26.8125 C 45.128906 12.558594 33.464844 0.777344 33.515625 0.632813 C 33.570313 0.460938 35.074219 0.351563 37.886719 0.308594 C 39.316406 0.285156 40.746094 0.261719 42.171875 0.242188 C 45.097656 3.144531 48.023438 6.042969 50.945313 8.945313 C 74.621094 32.433594 95.121094 52.957031 95.121094 53.171875 C 95.121094 53.308594 83.320313 65.214844 68.898438 79.632813 C 60.15625 88.375 51.414063 97.113281 42.675781 105.851563 C 41.261719 105.851563 39.847656 105.851563 38.433594 105.851563 C 35.566406 105.851563 34.136719 105.765625 34.023438 105.585938 Z M 50.34375 105.585938 C 50.246094 105.425781 60.734375 94.757813 76.1875 79.304688 C 84.859375 70.636719 93.527344 61.964844 102.199219 53.296875 C 93.449219 44.542969 84.699219 35.792969 75.949219 27.039063 C 60.449219 11.539063 49.765625 0.675781 49.863281 0.519531 C 49.972656 0.339844 51.414063 0.253906 54.261719 0.253906 C 55.671875 0.253906 57.082031 0.253906 58.492188 0.253906 C 67.296875 9.03125 76.101563 17.8125 84.90625 26.59375 C 99.433594 41.078125 111.347656 53.039063 111.386719 53.171875 C 111.421875 53.304688 99.648438 65.210938 85.222656 79.632813 C 76.480469 88.371094 67.738281 97.113281 58.996094 105.851563 C 57.582031 105.851563 56.164063 105.851563 54.753906 105.851563 C 51.886719 105.851563 50.453125 105.765625 50.34375 105.585938 Z M 66.453125 105.632813 C 66.375 105.507813 77.980469 93.773438 92.238281 79.550781 C 106.496094 65.332031 118.160156 53.523438 118.160156 53.3125 C 118.160156 53.105469 106.417969 41.191406 92.066406 26.839844 C 73.230469 8.003906 66.046875 0.671875 66.234375 0.484375 C 66.410156 0.308594 67.894531 0.246094 70.722656 0.296875 C 72.132813 0.324219 73.542969 0.347656 74.953125 0.371094 C 77.550781 2.96875 80.148438 5.558594 82.746094 8.152344 C 85.34375 10.746094 87.941406 13.339844 90.539063 15.933594 C 92.28125 14.246094 94.027344 12.558594 95.769531 10.871094 C 98.648438 8.085938 102.1875 4.613281 103.636719 3.152344 C 104.515625 2.265625 105.394531 1.378906 106.273438 0.492188 C 107.773438 0.492188 109.273438 0.492188 110.777344 0.492188 C 113.253906 0.492188 115.28125 0.574219 115.28125 0.675781 C 115.28125 0.773438 110.851563 5.28125 105.441406 10.695313 C 100.027344 16.105469 95.601563 20.644531 95.601563 20.78125 C 95.601563 21.441406 98.660156 24.0625 99.136719 23.808594 C 99.394531 23.671875 104.78125 18.3125 111.105469 11.90625 C 114.9375 8.019531 118.769531 4.136719 122.601563 0.253906 C 124.054688 0.253906 125.511719 0.253906 126.96875 0.253906 C 129.921875 0.253906 131.386719 0.339844 131.496094 0.523438 C 131.597656 0.679688 125.976563 6.480469 117.714844 14.742188 C 110.039063 22.417969 103.761719 28.800781 103.761719 28.929688 C 103.761719 29.308594 106.476563 31.933594 106.871094 31.933594 C 107.070313 31.933594 114.3125 24.859375 122.964844 16.214844 C 128.203125 10.972656 133.449219 5.734375 138.691406 0.492188 C 140.1875 0.492188 141.6875 0.492188 143.1875 0.492188 C 146.777344 0.492188 147.679688 0.558594 147.679688 0.8125 C 147.679688 0.992188 139.636719 9.140625 129.800781 18.929688 C 119.96875 28.714844 111.921875 36.855469 111.921875 37.019531 C 111.921875 37.449219 114.597656 40.09375 115.03125 40.09375 C 115.230469 40.09375 124.363281 31.128906 135.320313 20.175781 C 141.964844 13.535156 148.605469 6.894531 155.246094 0.253906 C 156.660156 0.253906 158.074219 0.253906 159.488281 0.253906 C 162.355469 0.253906 163.785156 0.339844 163.898438 0.523438 C 163.996094 0.679688 155.128906 9.726563 142.070313 22.78125 C 129.976563 34.878906 120.082031 44.945313 120.082031 45.15625 C 120.082031 45.609375 122.78125 48.253906 123.242188 48.253906 C 123.414063 48.253906 134.359375 37.453125 147.5625 24.253906 C 155.5625 16.253906 163.566406 8.253906 171.566406 0.253906 C 173.023438 0.253906 174.484375 0.253906 175.945313 0.253906 C 179.289063 0.253906 180.320313 0.324219 180.320313 0.554688 C 180.320313 0.71875 156.695313 24.480469 127.820313 53.355469 C 110.320313 70.855469 92.820313 88.355469 75.320313 105.855469 C 73.863281 105.855469 72.410156 105.855469 70.953125 105.855469 C 68.539063 105.855469 66.527344 105.753906 66.453125 105.632813 Z M 266.960938 93.972656 C 233.742188 89.429688 219.679688 49.863281 242.621094 25.476563 C 263.300781 3.492188 300.5625 11.515625 310.597656 40.113281 C 320.53125 68.4375 296.566406 98.019531 266.960938 93.972656 Z M 276.695313 80.523438 C 298.574219 76.707031 307.054688 49.835938 291.316406 34.195313 C 274.953125 17.9375 247.0625 28.113281 244.882813 51.136719 C 243.203125 68.835938 259.164063 83.582031 276.695313 80.523438 Z M 396.320313 94.164063 C 361.917969 90.445313 346.976563 49.144531 371.242188 24.855469 C 395.808594 0.269531 437.664063 15.621094 440.757813 50.355469 C 442.964844 75.082031 420.90625 96.824219 396.320313 94.164063 Z M 404.496094 80.511719 C 426.296875 76.832031 435.082031 50.394531 419.746094 34.609375 C 404.496094 18.90625 378.296875 26.324219 373.375 47.742188 C 370.074219 62.101563 379.5 76.9375 393.960938 80.148438 C 397.828125 81.003906 400.9375 81.113281 404.496094 80.511719 Z M 203.746094 93.234375 C 203.664063 93.023438 203.601563 86.246094 203.601563 78.171875 C 203.601563 73.277344 203.601563 68.382813 203.601563 63.488281 C 199.4375 55.226563 195.277344 46.960938 191.113281 38.699219 C 184.246094 25.0625 178.691406 13.804688 178.769531 13.679688 C 179.058594 13.210938 193.15625 13.398438 193.578125 13.871094 C 193.78125 14.105469 195.570313 17.640625 197.554688 21.734375 C 205.898438 38.949219 210.097656 47.417969 210.324219 47.496094 C 210.460938 47.539063 211.929688 44.785156 213.59375 41.375 C 215.253906 37.964844 217.75 32.851563 219.136719 30.011719 C 220.523438 27.175781 222.839844 22.421875 224.28125 19.453125 C 225.722656 16.484375 227.078125 13.917969 227.296875 13.753906 C 227.804688 13.367188 241.648438 13.316406 241.882813 13.699219 C 241.964844 13.832031 236.410156 25.109375 229.539063 38.761719 C 225.371094 47.035156 221.207031 55.308594 217.039063 63.582031 C 217.039063 68.460938 217.039063 73.339844 217.039063 78.21875 C 217.039063 86.269531 216.976563 93.023438 216.894531 93.234375 C 216.675781 93.808594 203.96875 93.808594 203.746094 93.234375 Z M 444.433594 93.316406 C 444.371094 93.148438 444.34375 75.140625 444.378906 53.292969 C 444.398438 40.054688 444.421875 26.8125 444.441406 13.574219 C 446.710938 13.550781 448.980469 13.53125 451.253906 13.507813 C 456.074219 13.464844 458.15625 13.523438 458.390625 13.71875 C 458.664063 13.945313 458.71875 16.824219 458.71875 30.617188 C 458.71875 45.554688 458.757813 47.257813 459.101563 47.386719 C 459.878906 47.6875 486.6875 47.550781 486.992188 47.246094 C 487.210938 47.027344 487.28125 42.945313 487.28125 30.351563 C 487.28125 15.429688 487.320313 13.730469 487.660156 13.597656 C 488.226563 13.382813 501.03125 13.429688 501.382813 13.652344 C 501.621094 13.804688 501.667969 21.964844 501.621094 53.667969 C 501.601563 66.945313 501.578125 80.21875 501.5625 93.492188 C 499.199219 93.492188 496.839844 93.492188 494.480469 93.492188 C 492.121094 93.492188 489.761719 93.492188 487.398438 93.492188 C 487.359375 88.132813 487.320313 82.773438 487.28125 77.414063 C 487.238281 72.054688 487.199219 66.695313 487.160156 61.335938 C 482.441406 61.335938 477.71875 61.335938 473 61.335938 C 468.28125 61.335938 463.5625 61.335938 458.839844 61.335938 C 458.800781 66.695313 458.761719 72.054688 458.722656 77.414063 C 458.679688 82.773438 458.640625 88.132813 458.601563 93.492188 C 456.257813 93.515625 453.917969 93.535156 451.574219 93.558594 C 446.082031 93.605469 444.523438 93.554688 444.433594 93.316406 Z M 504.941406 93.40625 C 504.871094 93.292969 506.007813 89.972656 507.46875 86.027344 C 511.347656 75.535156 526.886719 33.476563 530.640625 23.292969 C 532.417969 18.476563 534.027344 14.289063 534.222656 13.992188 C 534.589844 13.429688 547.585938 13.121094 548.433594 13.660156 C 548.605469 13.769531 549.480469 15.84375 550.378906 18.273438 C 557.109375 36.46875 562.453125 50.921875 563.726563 54.371094 C 564.550781 56.617188 568.066406 66.121094 571.53125 75.492188 C 575 84.863281 577.886719 92.777344 577.945313 93.074219 C 577.984375 93.253906 578.019531 93.433594 578.054688 93.613281 C 575.617188 93.613281 573.175781 93.613281 570.738281 93.613281 C 565.171875 93.613281 563.359375 93.542969 563.175781 93.3125 C 562.96875 93.054688 558.753906 81.535156 556.746094 75.734375 C 556.378906 74.675781 555.976563 73.675781 555.851563 73.511719 C 555.667969 73.273438 552.585938 73.222656 541.332031 73.273438 C 536.570313 73.292969 531.808594 73.3125 527.046875 73.332031 C 525.859375 76.605469 524.671875 79.878906 523.480469 83.152344 C 521.519531 88.554688 519.792969 93.117188 519.648438 93.292969 C 519.339844 93.664063 505.167969 93.773438 504.941406 93.40625 Z M 551.035156 61.566406 C 551.210938 61.109375 541.75 35.53125 541.40625 35.535156 C 540.941406 35.535156 531.570313 61.476563 531.945313 61.714844 C 532.597656 62.128906 550.875 61.984375 551.035156 61.566406 Z M 581.285156 93.457031 C 580.886719 93.058594 581.101563 13.753906 581.5 13.597656 C 582.296875 13.292969 598.289063 13.4375 598.679688 13.753906 C 598.882813 13.917969 599.328125 14.808594 599.664063 15.734375 C 601.15625 19.804688 622.113281 73.96875 622.253906 74.105469 C 622.5625 74.417969 623.007813 73.308594 634.277344 43.933594 C 640.582031 27.5 645.847656 13.917969 645.980469 13.753906 C 646.34375 13.296875 663.03125 13.320313 663.410156 13.777344 C 663.609375 14.019531 663.664063 24.660156 663.621094 53.800781 C 663.601563 67.03125 663.582031 80.261719 663.5625 93.492188 C 661.199219 93.492188 658.839844 93.492188 656.480469 93.492188 C 654.121094 93.492188 651.761719 93.492188 649.402344 93.492188 C 649.351563 91.851563 649.304688 90.214844 649.253906 88.574219 C 649.171875 85.867188 649.09375 74.4375 649.074219 63.171875 C 649.046875 47.171875 648.976563 42.714844 648.746094 42.789063 C 648.585938 42.84375 646.910156 46.929688 645.019531 51.871094 C 643.132813 56.8125 640.140625 64.632813 638.375 69.253906 C 636.605469 73.875 633.910156 80.949219 632.386719 84.972656 C 630.855469 89 629.46875 92.5625 629.296875 92.894531 C 629.191406 93.09375 629.085938 93.292969 628.984375 93.492188 C 626.816406 93.515625 624.652344 93.535156 622.484375 93.558594 C 617.175781 93.609375 615.933594 93.558594 615.710938 93.289063 C 615.558594 93.105469 611.125 81.699219 605.859375 67.941406 C 600.597656 54.179688 596.171875 42.804688 596.023438 42.660156 C 595.832031 42.46875 595.753906 45.183594 595.726563 52.585938 C 595.707031 58.1875 595.628906 69.683594 595.546875 78.132813 C 595.496094 83.253906 595.449219 88.375 595.402344 93.492188 C 593.074219 93.515625 590.75 93.535156 588.425781 93.558594 C 584.589844 93.59375 581.375 93.546875 581.285156 93.457031 Z M 668 93.214844 C 668 92.992188 669.039063 89.996094 670.3125 86.554688 C 671.582031 83.109375 673.300781 78.457031 674.128906 76.214844 C 674.957031 73.96875 678.011719 65.707031 680.914063 57.855469 C 683.816406 50 688.644531 36.929688 691.640625 28.8125 C 694.640625 20.695313 697.203125 13.917969 697.335938 13.753906 C 697.851563 13.121094 711.359375 13.34375 711.769531 13.992188 C 711.957031 14.289063 713.863281 19.285156 716.003906 25.09375 C 718.144531 30.902344 722.054688 41.484375 724.6875 48.613281 C 740.320313 90.921875 741.164063 93.238281 741.042969 93.433594 C 740.878906 93.699219 726.375 93.65625 726.210938 93.390625 C 726.132813 93.265625 724.515625 88.863281 722.613281 83.609375 C 720.714844 78.351563 719.085938 73.863281 718.992188 73.632813 C 718.839844 73.238281 717.921875 73.214844 704.480469 73.214844 C 691.035156 73.214844 690.121094 73.238281 689.96875 73.632813 C 689.878906 73.863281 689.226563 75.671875 688.519531 77.652344 C 684.496094 88.886719 683.097656 92.726563 682.875 93.144531 C 682.515625 93.820313 668 93.886719 668 93.214844 Z M 714.03125 61.730469 C 714.378906 61.507813 705.046875 35.761719 704.5625 35.601563 C 704.238281 35.492188 704.214844 35.554688 698.960938 49.796875 C 695.671875 58.710938 694.699219 61.582031 694.933594 61.730469 C 695.335938 61.988281 713.628906 61.984375 714.03125 61.730469 Z M 316.324219 92.738281 C 315.855469 92.265625 316.152344 13.234375 316.625 12.980469 C 317.25 12.644531 329.230469 12.644531 329.855469 12.980469 C 330.308594 13.222656 330.320313 13.660156 330.320313 29.683594 C 330.320313 42.0625 330.390625 46.109375 330.601563 46.039063 C 330.753906 45.988281 336.152344 38.664063 342.597656 29.761719 C 349.042969 20.855469 354.542969 13.382813 354.824219 13.152344 C 355.625 12.492188 372.078125 12.523438 372.078125 13.183594 C 372.078125 13.273438 365.226563 22.359375 356.847656 33.378906 C 348.46875 44.398438 341.609375 53.519531 341.609375 53.652344 C 341.609375 53.785156 344.359375 57.511719 347.722656 61.933594 C 351.085938 66.355469 357.671875 75.015625 362.359375 81.179688 C 367.046875 87.34375 370.878906 92.503906 370.878906 92.640625 C 370.878906 92.8125 368.132813 92.894531 362.261719 92.894531 C 359.386719 92.894531 356.515625 92.894531 353.640625 92.894531 C 349.867188 87.59375 346.09375 82.292969 342.316406 76.992188 C 336.089844 68.25 330.84375 61.058594 330.660156 61.015625 C 330.375 60.949219 330.3125 63.371094 330.261719 76.855469 C 330.242188 82.160156 330.222656 87.46875 330.199219 92.773438 C 327.914063 92.792969 325.628906 92.816406 323.34375 92.835938 C 319.574219 92.871094 316.414063 92.828125 316.324219 92.738281 "/>
</g>
</svg>
